# Blender v3.1.2 OBJ File: 'assets.blend'
# www.blender.org
o Cylinder
v 0.000000 0.000000 -0.100000
v 0.000000 0.700000 -0.100000
v 0.038268 0.000000 -0.092388
v 0.038268 0.700000 -0.092388
v 0.070711 0.000000 -0.070711
v 0.070711 0.700000 -0.070711
v 0.092388 0.000000 -0.038268
v 0.092388 0.700000 -0.038268
v 0.100000 0.000000 0.000000
v 0.100000 0.700000 0.000000
v 0.092388 0.000000 0.038268
v 0.092388 0.700000 0.038268
v 0.070711 0.000000 0.070711
v 0.070711 0.700000 0.070711
v 0.038268 0.000000 0.092388
v 0.038268 0.700000 0.092388
v -0.000000 0.000000 0.100000
v -0.000000 0.700000 0.100000
v -0.038268 0.000000 0.092388
v -0.038268 0.700000 0.092388
v -0.070711 0.000000 0.070711
v -0.070711 0.700000 0.070711
v -0.092388 0.000000 0.038268
v -0.092388 0.700000 0.038268
v -0.100000 0.000000 -0.000000
v -0.100000 0.700000 -0.000000
v -0.092388 0.000000 -0.038268
v -0.092388 0.700000 -0.038268
v -0.070711 0.000000 -0.070711
v -0.070711 0.700000 -0.070711
v -0.038268 0.000000 -0.092388
v -0.038268 0.700000 -0.092388
vn -0.0000 0.0000 -1.0000
vn 0.3827 0.0000 -0.9239
vn 0.7071 0.0000 -0.7071
vn 0.9239 0.0000 -0.3827
vn 1.0000 0.0000 -0.0000
vn 0.9239 0.0000 0.3827
vn 0.7071 0.0000 0.7071
vn 0.3827 0.0000 0.9239
vn -0.0000 0.0000 1.0000
vn -0.3827 0.0000 0.9239
vn -0.7071 0.0000 0.7071
vn -0.9239 0.0000 0.3827
vn -1.0000 0.0000 -0.0000
vn -0.9239 0.0000 -0.3827
vn -0.7071 0.0000 -0.7071
vn -0.3827 0.0000 -0.9239
s 1
f 2//1 3//2 1//1
f 4//2 5//3 3//2
f 6//3 7//4 5//3
f 8//4 9//5 7//4
f 10//5 11//6 9//5
f 12//6 13//7 11//6
f 14//7 15//8 13//7
f 16//8 17//9 15//8
f 18//9 19//10 17//9
f 20//10 21//11 19//10
f 22//11 23//12 21//11
f 24//12 25//13 23//12
f 26//13 27//14 25//13
f 28//14 29//15 27//14
f 30//15 31//16 29//15
f 32//16 1//1 31//16
f 2//1 4//2 3//2
f 4//2 6//3 5//3
f 6//3 8//4 7//4
f 8//4 10//5 9//5
f 10//5 12//6 11//6
f 12//6 14//7 13//7
f 14//7 16//8 15//8
f 16//8 18//9 17//9
f 18//9 20//10 19//10
f 20//10 22//11 21//11
f 22//11 24//12 23//12
f 24//12 26//13 25//13
f 26//13 28//14 27//14
f 28//14 30//15 29//15
f 30//15 32//16 31//16
f 32//16 2//1 1//1
