# Blender v3.1.2 OBJ File: 'assets.blend'
# www.blender.org
o Cube.002_cell_Cube.002_cell.029
v -0.500000 1.000000 0.500000
v -0.170902 0.634984 0.213450
v 0.012278 0.509170 0.500000
v -0.500000 0.624163 0.238029
v -0.500000 0.635263 0.212751
v -0.291975 1.000000 0.280254
v -0.271590 1.000000 0.312249
v -0.500000 0.720528 0.228421
v -0.500000 1.000000 0.280328
v -0.337230 1.000000 0.280150
v -0.500000 0.509519 0.500000
v 0.068068 0.509175 0.500000
v 0.029720 0.594715 0.500000
v -0.152276 1.000000 0.500000
v 0.502919 0.972270 -0.463329
v 0.498285 0.981788 0.536615
v -0.168460 0.612960 0.248700
v -0.084671 0.515216 0.010881
v -0.102278 0.507855 0.095440
v 0.052177 0.437355 -0.080372
v 0.150490 0.305325 0.159617
v 0.150914 0.306203 0.153857
v 0.069784 0.489396 0.539317
v 0.030726 0.575510 0.538316
v -0.291290 0.977572 0.311992
v -0.270934 0.977936 0.344558
v -0.286244 0.977378 0.290330
v -0.288284 0.977455 0.298956
v 0.089622 0.471866 0.539575
v -0.044685 0.941311 -0.465571
v -0.067888 0.970744 -0.465959
v -0.074860 0.970808 -0.457404
v 0.110364 0.745235 -0.462987
v 0.275234 0.309511 0.541981
v 0.501647 0.457933 0.110872
v 0.499806 0.403277 0.542129
v 0.165377 0.745908 -0.462738
v 0.501867 0.514254 0.030503
v 0.503206 0.863050 -0.462288
v -0.152029 0.980050 0.533618
v 0.121834 0.730936 -0.462797
v -0.122285 0.971244 -0.398599
v 0.251813 0.329953 0.541678
v 0.500000 -0.002736 -0.500000
v 0.149458 0.327734 0.110575
v 0.012520 0.408610 -0.183153
v 0.049575 0.460506 -0.121946
v 0.050307 -0.002736 -0.074181
v 0.500000 -0.002736 -0.264614
v 0.500000 0.450422 0.047437
v 0.118743 0.756881 -0.500000
v 0.500000 0.865005 -0.467901
v 0.129606 0.760658 -0.500000
v -0.196654 -0.011608 -0.497045
v 0.060233 0.637099 -0.500000
v 0.054903 0.626037 -0.500000
v 0.500000 0.888124 -0.500000
v -0.200630 0.005578 -0.505347
v -0.187073 -0.002736 -0.470210
v 0.500000 0.478897 0.067125
v 0.020015 -0.002736 -0.061394
v -0.102102 0.530257 -0.018636
v -0.184669 0.617692 0.223022
v -0.118969 0.519181 0.065727
v -0.306274 0.980238 0.300329
v -0.303241 0.980605 0.287233
v -0.512988 0.616794 0.224206
v -0.513227 0.530688 0.088586
v -0.513264 0.517616 0.067815
v -0.513696 0.528603 -0.016311
v -0.514215 0.974473 0.300406
v -0.517551 0.998510 -0.408392
v -0.301245 0.980849 0.278534
v -0.144627 1.000172 -0.410843
v -0.515409 -0.012689 0.521843
v -0.123152 0.520880 0.077678
v 0.129331 0.316091 0.137133
v -0.187920 0.623550 0.231236
v -0.515408 0.496990 0.521843
v -0.517367 0.623856 0.234230
v -0.518283 0.534662 0.099868
v -0.518311 0.467672 0.095723
v 0.258284 0.316647 0.516573
v 0.013811 -0.012691 0.292605
v 0.089510 -0.012691 0.517722
v 0.234596 0.337589 0.516734
v -0.518420 0.521179 0.079737
v -0.002808 0.497268 0.518351
v -0.072782 -0.012691 0.236012
v -0.517334 -0.012690 0.239237
v -0.005520 -0.012691 0.235598
v -0.518390 0.506553 0.084081
v 0.227681 0.257202 0.516781
v -0.517192 0.612652 0.259886
v 0.053502 0.497160 0.517967
v 0.513800 -0.012733 0.502649
v 0.163766 0.316439 0.115224
v 0.163014 0.315777 0.120654
v 0.118631 -0.012711 0.494362
v 0.027628 -0.012709 0.218679
v 0.121320 -0.012711 0.502483
v 0.034555 -0.012714 -0.056396
v 0.513972 0.456327 0.159430
v 0.064785 -0.012716 -0.069283
v 0.513823 0.409561 0.502644
v 0.290007 0.316758 0.502550
v 0.514010 0.468194 0.072023
v 0.514123 -0.012744 -0.259156
v 0.332764 0.334519 0.502568
v 0.514017 0.439969 0.051726
v -0.505021 0.992211 -0.492951
v 0.004363 0.403340 -0.173523
v -0.093141 0.532323 -0.021413
v 0.041983 0.454142 -0.113370
v -0.505243 0.620211 -0.492336
v -0.505108 0.987071 -0.423070
v 0.048138 0.620552 -0.491668
v -0.505100 0.992319 -0.427711
v -0.063655 0.973552 -0.492387
v 0.111341 0.749896 -0.491806
v -0.505755 0.403609 -0.174790
v -0.079134 0.991960 -0.491153
v 0.053515 0.631319 -0.491679
v -0.505863 0.532868 -0.022042
v -0.131329 0.992096 -0.427925
v 0.009379 0.409398 -0.183963
v -0.500000 0.625555 -0.500000
v -0.500000 0.429898 -0.213956
v 0.052444 0.626260 -0.500000
v -0.023820 0.626248 -0.500000
v -0.500000 0.409411 -0.184098
v -0.496928 0.001693 -0.505760
v -0.206614 0.005033 -0.500454
v -0.501157 -0.012773 -0.499141
v 0.007758 0.398514 -0.179269
v -0.108288 0.520596 0.058995
v 0.143455 0.315968 0.120475
v -0.090128 0.528125 -0.025750
v 0.045545 0.450944 -0.116814
v 0.143961 0.317407 0.115226
v 0.007749 -0.012773 0.218343
v -0.021390 -0.012773 0.218338
v -0.503305 0.519824 0.057344
v -0.503014 0.527305 -0.017971
v -0.360885 -0.006100 -0.497950
v -0.204547 -0.002663 -0.495807
v -0.204839 -0.012773 -0.497998
v 0.015436 -0.012773 -0.056350
v -0.495965 -0.002649 -0.499552
v -0.502386 0.398235 -0.180796
v -0.502925 0.516680 -0.041030
v -0.502978 0.528144 -0.027416
v -0.503916 -0.012773 0.215727
v 0.499999 -0.036897 -0.500000
v 0.507061 -0.041900 -0.261885
v -0.202797 -0.039406 -0.499499
v 0.023335 -0.043568 -0.058047
v 0.057545 -0.041886 -0.071731
v -0.047087 -0.046892 0.227175
v -0.510626 -0.046892 0.227482
v -0.515410 -0.046850 0.521843
v 0.014371 -0.046881 0.222825
v 0.513799 -0.046894 0.502649
v 0.105415 -0.046861 0.510103
v -0.501158 -0.046934 -0.499141
vn -0.0006 -0.9161 -0.4009
vn 0.0001 -0.9156 -0.4021
vn 0.7889 0.3536 -0.5026
vn 0.7892 0.3544 -0.5015
vn -0.0011 0.1826 -0.9832
vn 0.0022 0.1807 -0.9835
vn 0.0000 1.0000 0.0000
vn 0.0000 0.0000 1.0000
vn -1.0000 0.0000 0.0000
vn -0.7915 -0.3532 0.4987
vn -0.7907 -0.3514 0.5012
vn -0.9359 -0.2750 -0.2203
vn -0.9359 -0.2759 -0.2189
vn -0.9364 -0.2784 -0.2134
vn -0.6475 -0.7294 0.2206
vn -0.6441 -0.7329 0.2189
vn -0.6604 -0.5277 -0.5342
vn -0.6618 -0.5303 -0.5298
vn -0.5809 -0.7897 -0.1973
vn -0.5844 -0.7889 -0.1903
vn -0.6579 -0.5347 -0.5303
vn -0.5912 -0.7897 -0.1639
vn -0.6434 -0.7339 0.2179
vn 0.3830 -0.9170 -0.1117
vn 0.3825 -0.9168 -0.1148
vn 0.2731 -0.7855 -0.5553
vn -0.0026 1.0000 -0.0095
vn -0.0046 0.0095 0.9999
vn 1.0000 0.0027 0.0046
vn 0.0046 -0.0095 -0.9999
vn 0.2713 -0.7867 -0.5545
vn 0.3293 -0.5355 0.7777
vn -0.8870 0.4274 0.1746
vn -0.8844 0.4320 0.1769
vn -0.9165 0.3763 0.1356
vn -0.2690 0.7815 0.5629
vn -0.2671 0.7814 0.5639
vn 0.3273 -0.5340 0.7795
vn -0.8863 0.1135 0.4490
vn -0.9053 0.1697 0.3894
vn -0.8920 0.1243 0.4346
vn -0.2715 0.7809 0.5625
vn 1.0000 -0.0000 0.0000
vn 0.0000 0.0000 -1.0000
vn 0.0061 -0.2066 0.9784
vn 0.9373 0.2665 0.2246
vn 0.9375 0.2676 0.2226
vn 0.9376 0.2689 0.2205
vn 0.0041 -0.2083 0.9780
vn 0.0042 -0.8442 0.5360
vn 0.0062 -0.8463 0.5326
vn -0.0022 -0.6407 -0.7678
vn -0.0277 0.9994 0.0216
vn -1.0000 -0.0044 0.0046
vn 0.0033 -0.9916 -0.1295
vn 0.0023 0.9148 0.4039
vn 0.0045 0.9164 0.4002
vn -0.0043 0.8331 -0.5530
vn -0.0070 -0.2863 -0.9581
vn 0.8525 -0.4359 -0.2885
vn 0.8524 -0.4374 -0.2866
vn -0.0054 -0.2849 -0.9585
vn 0.6452 0.7315 -0.2204
vn -0.0023 0.8309 -0.5565
vn -0.0052 -0.2847 -0.9586
vn 0.0068 0.0000 1.0000
vn -1.0000 0.0000 0.0068
vn 0.8057 0.5344 -0.2554
vn 0.6442 0.7328 -0.2190
vn -0.8544 0.4363 0.2821
vn -0.9267 0.3750 -0.0233
vn -0.8538 0.4371 0.2828
vn -0.3909 0.9186 0.0580
vn -0.9136 0.3992 -0.0777
vn -0.3807 0.9163 0.1242
vn -0.3297 0.5351 -0.7778
vn -0.3289 0.5345 -0.7785
vn -0.3799 0.9166 0.1247
vn -0.0004 0.0000 1.0000
vn -0.0052 0.2544 0.9671
vn 1.0000 -0.0001 0.0004
vn -0.0020 -0.7633 0.6460
vn -0.0003 0.6619 0.7496
vn 0.8801 -0.4397 -0.1791
vn 0.0010 -0.8261 -0.5635
vn 0.0008 0.6624 0.7491
vn 0.6652 0.5237 0.5322
vn 0.6541 0.5308 0.5389
vn 0.6667 0.5230 0.5310
vn 0.8848 -0.4317 -0.1752
vn 0.0006 1.0000 -0.0017
vn -1.0000 0.0006 -0.0012
vn -0.0321 0.0400 -0.9987
vn 0.9143 -0.3812 -0.1370
vn -0.0012 0.8254 0.5646
vn -0.0001 0.8246 0.5658
vn -1.0000 -0.0049 -0.0034
vn -0.0000 0.0007 -1.0000
vn -0.0072 -0.6194 0.7850
vn -0.0001 0.2854 0.9584
vn 0.9267 -0.3748 0.0259
vn -0.0024 0.9951 0.0988
vn 0.0252 0.6224 -0.7823
vn 0.0015 0.7629 -0.6465
vn -0.0029 0.6204 -0.7843
vn 0.0026 0.7649 -0.6441
vn 0.9333 -0.3589 -0.0085
vn 0.5674 0.7786 0.2682
vn 0.5865 0.7842 0.2025
vn 0.5804 0.7907 0.1946
vn -0.0003 0.9961 0.0884
vn -0.0052 0.2855 0.9584
vn 0.8894 -0.1137 -0.4427
vn -0.9999 -0.0071 -0.0112
vn 0.3861 0.1332 0.9128
vn 0.0107 -0.0460 -0.9989
vn 0.8870 -0.1169 -0.4467
vn -0.0088 -0.9997 -0.0207
vn -0.0000 -1.0000 0.0001
vn 0.0450 -0.9989 -0.0103
vn 0.0252 -0.9994 -0.0223
vn -0.3728 0.1842 -0.9094
vn -0.0069 0.3238 -0.9461
vn -0.0010 0.0882 -0.9961
vn -0.9330 0.3589 -0.0255
vn -0.0060 0.2459 -0.9693
vn 0.7864 0.5571 -0.2667
vn -0.8915 -0.0355 0.4516
vn -0.8499 0.4530 0.2693
vn -0.3838 0.1714 -0.9074
vn -0.9434 0.1841 0.2759
vn -0.9820 0.1887 -0.0128
vn 0.0185 -0.2094 0.9777
vn -0.0001 0.1303 0.9915
vn -0.8449 0.4559 0.2798
vn 0.9721 -0.2345 -0.0101
vn 0.3632 0.1249 0.9233
vn 0.0039 -0.0000 -1.0000
vn 0.9686 0.2470 0.0271
vn 0.8910 0.0934 -0.4444
vn 0.3828 -0.9167 -0.1145
vn 0.2733 -0.7881 -0.5515
vn 0.2713 -0.7865 -0.5548
vn 0.3280 -0.5373 0.7770
vn 0.3288 -0.5341 0.7789
vn -0.9356 -0.0475 0.3498
vn -0.8867 0.1166 0.4475
vn 0.9841 0.1757 -0.0255
vn 0.0017 -0.4346 -0.9006
vn 0.0077 0.0054 -1.0000
vn -0.0018 -0.6409 -0.7677
vn -0.0043 0.9996 0.0270
vn -0.0264 0.9991 0.0340
vn -0.0277 0.9994 0.0217
vn 0.8522 -0.4361 -0.2890
vn 0.8509 -0.4391 -0.2885
vn -0.0059 -0.2869 -0.9580
vn -0.0059 -0.2847 -0.9586
vn 0.8436 0.4559 -0.2837
vn 0.6437 0.7333 -0.2188
vn -0.3312 0.5352 -0.7771
vn -0.3329 0.5505 -0.7656
vn 0.0006 0.3256 0.9455
vn -0.0021 -0.7634 0.6460
vn -0.0020 -0.7634 0.6460
vn 0.0012 -0.8259 -0.5637
vn 0.0012 -0.0017 -1.0000
vn 0.0042 -0.0017 -1.0000
vn -1.0000 -0.0049 -0.0033
vn 0.0182 0.0093 -0.9998
vn -0.0002 -0.6163 0.7875
vn -0.0015 0.2860 0.9582
vn 0.0020 0.6176 -0.7865
vn 0.0029 0.7650 -0.6440
vn -0.0046 0.2850 0.9585
vn -0.8899 0.4562 -0.0034
vn -1.0000 -0.0000 -0.0039
vn 0.3867 0.1286 0.9132
vn 0.0087 0.2115 -0.9773
vn 0.0038 0.0969 -0.9953
vn 0.8890 -0.1158 -0.4430
vn 0.8926 0.0706 -0.4452
vn 0.0376 -0.9989 -0.0287
vn 0.0036 -1.0000 -0.0080
vn 0.0002 -1.0000 0.0000
vn -0.0028 -1.0000 -0.0065
vn -0.0001 -1.0000 0.0001
vn 0.0088 -0.9998 -0.0157
vn -0.0007 -0.9999 -0.0118
vn -0.0000 -0.9999 -0.0117
vn 0.0063 -1.0000 0.0001
vn -0.3863 0.1719 -0.9062
vn -0.0006 0.2497 -0.9683
vn -0.0042 -0.0000 -1.0000
vn -0.9391 0.3428 -0.0237
vn -0.0671 0.3147 -0.9468
vn 0.0179 0.2098 0.9776
vn -0.8898 0.0174 0.4560
vn -0.8797 0.3765 0.2904
vn -0.3830 0.1776 -0.9065
vn 0.0691 0.2010 0.9771
vn 1.0000 -0.0000 0.0004
vn 0.3867 0.1065 0.9160
vn -0.0026 0.0561 -0.9984
vn 0.9803 0.1947 0.0336
vn 0.8637 0.2458 -0.4401
vn -0.9822 -0.1872 -0.0159
s off
f 4//1 3//1 11//1
f 2//2 3//2 4//2
f 2//3 6//3 7//3
f 7//4 14//4 13//4
f 10//5 8//5 9//5
f 2//6 5//6 8//6
f 1//7 7//7 10//7
f 3//8 12//8 13//8
f 11//9 1//9 8//9
f 26//10 17//10 24//10
f 26//11 24//11 40//11
f 18//12 27//12 42//12
f 27//13 19//13 28//13
f 28//14 17//14 25//14
f 23//15 19//15 29//15
f 19//16 43//16 29//16
f 32//17 31//17 30//17
f 33//18 42//18 30//18
f 20//19 22//19 18//19
f 22//20 19//20 18//20
f 33//21 20//21 18//21
f 22//22 21//22 19//22
f 21//23 43//23 19//23
f 22//24 35//24 21//24
f 35//25 34//25 21//25
f 38//26 37//26 39//26
f 32//27 42//27 15//27
f 36//28 24//28 29//28
f 38//29 16//29 35//29
f 15//30 37//30 30//30
f 37//31 38//31 20//31
f 48//32 49//32 50//32
f 47//33 56//33 46//33
f 47//34 51//34 55//34
f 46//35 56//35 58//35
f 53//36 52//36 57//36
f 45//37 60//37 52//37
f 50//38 45//38 48//38
f 45//39 59//39 61//39
f 59//40 47//40 58//40
f 46//41 58//41 47//41
f 47//42 53//42 51//42
f 49//43 154//43 44//43
f 50//43 44//43 52//43
f 55//44 57//44 44//44
f 71//45 63//45 65//45
f 63//46 66//46 65//46
f 64//47 73//47 66//47
f 62//48 74//48 73//48
f 71//49 67//49 63//49
f 68//50 63//50 67//50
f 64//51 68//51 69//51
f 74//52 70//52 72//52
f 71//53 65//53 66//53
f 71//54 72//54 70//54
f 70//55 64//55 69//55
f 88//56 94//56 79//56
f 88//57 78//57 94//57
f 81//58 80//58 78//58
f 89//59 90//59 82//59
f 77//60 93//60 84//60
f 84//61 93//61 85//61
f 77//62 89//62 82//62
f 86//63 77//63 76//63
f 76//64 81//64 78//64
f 76//65 92//65 87//65
f 93//66 83//66 86//66
f 82//67 90//67 79//67
f 84//68 164//68 162//68
f 76//69 95//69 86//69
f 100//70 99//70 98//70
f 98//71 102//71 100//71
f 106//72 99//72 101//72
f 107//73 97//73 98//73
f 97//74 102//74 98//74
f 98//75 106//75 109//75
f 97//76 110//76 104//76
f 104//77 110//77 108//77
f 109//78 105//78 103//78
f 96//79 105//79 109//79
f 153//80 159//80 142//80
f 103//81 96//81 110//81
f 112//82 113//82 121//82
f 116//83 124//83 113//83
f 117//84 114//84 112//84
f 115//85 112//85 121//85
f 116//86 125//86 118//86
f 113//87 119//87 122//87
f 125//88 113//88 122//88
f 114//89 120//89 119//89
f 114//90 123//90 120//90
f 111//91 125//91 122//91
f 124//92 116//92 115//92
f 119//93 115//93 122//93
f 126//94 133//94 129//94
f 130//95 127//95 128//95
f 126//96 129//96 130//96
f 128//97 132//97 131//97
f 130//98 133//98 127//98
f 133//99 131//99 132//99
f 137//100 142//100 141//100
f 148//101 137//101 141//101
f 144//102 143//102 136//102
f 150//103 145//103 149//103
f 150//104 151//104 135//104
f 146//105 145//105 135//105
f 138//106 135//106 151//106
f 148//107 140//107 137//107
f 140//108 136//108 137//108
f 140//109 139//109 136//109
f 139//110 138//110 136//110
f 136//111 152//111 144//111
f 136//112 153//112 142//112
f 139//113 140//113 135//113
f 150//114 149//114 153//114
f 49//115 158//115 155//115
f 134//116 149//116 145//116
f 148//117 146//117 135//117
f 154//118 155//118 158//118
f 161//119 160//119 159//119
f 162//120 157//120 158//120
f 165//121 156//121 157//121
f 102//122 158//122 157//122
f 89//123 160//123 90//123
f 54//124 154//124 156//124
f 100//125 157//125 162//125
f 91//126 159//126 89//126
f 91//127 84//127 162//127
f 101//79 163//79 96//79
f 59//128 157//128 61//128
f 99//129 162//129 164//129
f 104//130 155//130 158//130
f 59//131 54//131 156//131
f 153//132 165//132 160//132
f 85//133 161//133 164//133
f 142//134 162//134 141//134
f 101//135 99//135 164//135
f 108//136 163//136 155//136
f 48//137 157//137 158//137
f 147//138 165//138 134//138
f 141//139 157//139 148//139
f 148//140 156//140 147//140
f 90//67 161//67 75//67
f 4//2 5//2 2//2
f 2//2 12//2 3//2
f 7//3 13//3 2//3
f 13//3 12//3 2//3
f 10//6 6//6 8//6
f 6//6 2//6 8//6
f 10//7 9//7 1//7
f 1//7 14//7 7//7
f 7//7 6//7 10//7
f 13//8 14//8 11//8
f 14//8 1//8 11//8
f 11//8 3//8 13//8
f 9//9 8//9 1//9
f 8//9 5//9 4//9
f 11//9 8//9 4//9
f 25//10 17//10 26//10
f 17//10 23//10 24//10
f 27//13 18//13 19//13
f 28//14 19//14 17//14
f 23//15 17//15 19//15
f 18//18 42//18 33//18
f 42//18 32//18 30//18
f 33//21 41//21 20//21
f 21//23 34//23 43//23
f 35//141 36//141 34//141
f 27//27 28//27 26//27
f 28//27 25//27 26//27
f 26//27 40//27 16//27
f 27//27 26//27 16//27
f 16//27 15//27 42//27
f 27//27 16//27 42//27
f 15//27 31//27 32//27
f 34//28 36//28 43//28
f 36//28 16//28 24//28
f 16//28 40//28 24//28
f 24//28 23//28 29//28
f 29//28 43//28 36//28
f 38//29 39//29 15//29
f 15//29 16//29 38//29
f 16//29 36//29 35//29
f 37//30 41//30 33//30
f 33//30 30//30 37//30
f 30//30 31//30 15//30
f 15//30 39//30 37//30
f 35//142 22//142 38//142
f 22//143 20//143 38//143
f 20//31 41//31 37//31
f 47//33 55//33 56//33
f 53//36 45//36 52//36
f 60//144 45//144 50//144
f 45//145 61//145 48//145
f 58//146 54//146 59//146
f 59//147 45//147 47//147
f 47//42 45//42 53//42
f 49//148 155//148 154//148
f 50//43 49//43 44//43
f 44//43 57//43 52//43
f 52//43 60//43 50//43
f 54//149 58//149 44//149
f 58//150 56//150 44//150
f 56//44 55//44 44//44
f 55//44 51//44 53//44
f 53//44 57//44 55//44
f 63//46 64//46 66//46
f 64//47 62//47 73//47
f 64//51 63//51 68//51
f 74//151 62//151 70//151
f 74//152 72//152 73//152
f 72//153 71//153 73//153
f 73//154 71//154 66//154
f 70//54 69//54 68//54
f 68//54 67//54 70//54
f 67//54 71//54 70//54
f 70//55 62//55 64//55
f 95//57 78//57 88//57
f 78//57 80//57 94//57
f 84//155 91//155 77//155
f 77//156 83//156 93//156
f 82//157 92//157 77//157
f 77//158 91//158 89//158
f 86//63 83//63 77//63
f 76//64 87//64 81//64
f 76//65 77//65 92//65
f 86//66 95//66 93//66
f 95//66 88//66 93//66
f 88//66 79//66 75//66
f 75//66 85//66 88//66
f 85//66 93//66 88//66
f 90//67 75//67 79//67
f 79//67 94//67 82//67
f 94//67 80//67 81//67
f 82//67 94//67 81//67
f 81//67 87//67 92//67
f 82//67 81//67 92//67
f 84//159 85//159 164//159
f 76//160 78//160 95//160
f 106//72 98//72 99//72
f 109//75 103//75 98//75
f 103//75 107//75 98//75
f 104//161 102//161 97//161
f 97//162 107//162 110//162
f 109//79 106//79 96//79
f 106//79 101//79 96//79
f 153//163 160//163 159//163
f 110//81 107//81 103//81
f 103//81 105//81 96//81
f 96//81 108//81 110//81
f 114//164 113//164 112//164
f 113//165 124//165 121//165
f 117//84 123//84 114//84
f 115//166 117//166 112//166
f 116//86 113//86 125//86
f 113//87 114//87 119//87
f 111//91 118//91 125//91
f 118//92 111//92 116//92
f 111//92 115//92 116//92
f 115//92 121//92 124//92
f 120//167 123//167 119//167
f 123//167 117//167 119//167
f 117//167 115//167 119//167
f 115//168 111//168 122//168
f 130//96 128//96 126//96
f 128//96 131//96 126//96
f 128//169 127//169 132//169
f 129//98 133//98 130//98
f 133//170 132//170 127//170
f 133//171 126//171 131//171
f 137//172 136//172 142//172
f 150//173 135//173 145//173
f 151//106 152//106 138//106
f 138//174 139//174 135//174
f 136//111 138//111 152//111
f 136//175 143//175 153//175
f 149//176 134//176 153//176
f 153//177 143//177 150//177
f 143//177 144//177 151//177
f 144//177 152//177 151//177
f 151//177 150//177 143//177
f 49//178 48//178 158//178
f 145//179 146//179 147//179
f 147//180 134//180 145//180
f 135//181 140//181 148//181
f 148//182 147//182 146//182
f 157//183 156//183 158//183
f 156//184 154//184 158//184
f 159//185 162//185 164//185
f 164//119 161//119 159//119
f 155//186 163//186 158//186
f 163//187 164//187 162//187
f 158//188 163//188 162//188
f 162//189 159//189 157//189
f 159//190 160//190 157//190
f 160//191 165//191 157//191
f 102//192 104//192 158//192
f 89//193 159//193 160//193
f 54//194 44//194 154//194
f 100//195 102//195 157//195
f 91//196 162//196 159//196
f 101//197 164//197 163//197
f 59//198 156//198 157//198
f 99//199 100//199 162//199
f 104//200 108//200 155//200
f 153//177 134//177 165//177
f 85//66 75//66 161//66
f 142//201 159//201 162//201
f 108//202 96//202 163//202
f 48//203 61//203 157//203
f 147//204 156//204 165//204
f 141//205 162//205 157//205
f 148//206 157//206 156//206
f 90//207 160//207 161//207
